# xmcd CD database file
#
# Track frame offsets:
#	182
#	15527
#	29142
#	45770
#	58622
#	73080
#	87190
#	102120
#	114575
#	129235
#	148682
#	168475
#	189197
#	201975
#	215005
#
# Disc length: 3092 seconds
#
# Revision: 1
# Processed by: cddbd v1.5.2PL0 Copyright (c) Steve Scherf et al.
# Submitted via: CDex 1.70beta2
#
DISCID=d10c120f
DTITLE=Louise Morrissey - When I Was Yours
DYEAR=1990
DGENRE=Irsk
TTITLE0=I couldn't leave you if I tried
TTITLE1=He thinks I still care
TTITLE2=Old flames
TTITLE3=Blue eyes crying in the rain
TTITLE4=Oh what a love
TTITLE5=I still love you
TTITLE6=The night Daniel O'Donnell came to town
TTITLE7=When I was yours
TTITLE8=Tipperary on my mind
TTITLE9=The rose of Allendale
TTITLE10=The hills of Killinule
TTITLE11=Green willow
TTITLE12=Slievenamon
TTITLE13=Roses and violets
TTITLE14=Amazing grace
EXTD=YEAR: 1990
EXTT0=
EXTT1=
EXTT2=
EXTT3=
EXTT4=
EXTT5=
EXTT6=
EXTT7=
EXTT8=
EXTT9=
EXTT10=
EXTT11=
EXTT12=
EXTT13=
EXTT14=
PLAYORDER=
